<svg width="64" height="64" viewBox="0 0 64 64" fill="none" xmlns="http://www.w3.org/2000/svg">
  <rect width="64" height="64" rx="16" fill="#0B0F14"/>
  <path d="M14 18H22.5C26.5 18 29 20.2 29 23.5C29 26.3 27.4 28.2 24.8 28.9L29.5 38H24.5L20.2 29.2H18.2V38H14V18ZM18.2 22.2V25.8H22.2C23.8 25.8 24.8 24.9 24.8 23.5C24.8 22.1 23.8 21.2 22.2 21.2H18.2Z" fill="#22C55E"/>
  <path d="M31 18H39.8C44.6 18 47.8 21.1 47.8 25.5C47.8 29.9 44.6 33 39.8 33H35.2V38H31V18ZM35.2 22.2V28.8H39.5C41.8 28.8 43.4 27.4 43.4 25.5C43.4 23.6 41.8 22.2 39.5 22.2H35.2Z" fill="#22C55E"/>
  <circle cx="50" cy="46" r="4" fill="#22C55E" fill-opacity="0.35"/>
</svg>
